<?xml version="1.0" encoding="UTF-8" standalone="no"?>
<!-- Created with Inkscape (http://www.inkscape.org/) -->

<svg
   width="43.843674mm"
   height="34.019199mm"
   viewBox="0 0 43.843674 34.019199"
   version="1.1"
   id="svg1"
   inkscape:version="1.3.2 (091e20e, 2023-11-25, custom)"
   sodipodi:docname="logo.svg"
   xmlns:inkscape="http://www.inkscape.org/namespaces/inkscape"
   xmlns:sodipodi="http://sodipodi.sourceforge.net/DTD/sodipodi-0.dtd"
   xmlns="http://www.w3.org/2000/svg"
   xmlns:svg="http://www.w3.org/2000/svg">
  <sodipodi:namedview
     id="namedview1"
     pagecolor="#ffffff"
     bordercolor="#999999"
     borderopacity="1"
     inkscape:showpageshadow="2"
     inkscape:pageopacity="0"
     inkscape:pagecheckerboard="0"
     inkscape:deskcolor="#d1d1d1"
     inkscape:document-units="mm"
     inkscape:zoom="1.4627806"
     inkscape:cx="164.75472"
     inkscape:cy="186.97268"
     inkscape:window-width="1920"
     inkscape:window-height="1017"
     inkscape:window-x="-8"
     inkscape:window-y="-8"
     inkscape:window-maximized="1"
     inkscape:current-layer="layer1" />
  <defs
     id="defs1">
    <inkscape:path-effect
       effect="spiro"
       id="path-effect2"
       is_visible="true"
       lpeversion="1" />
  </defs>
  <g
     inkscape:label="Warstwa 1"
     inkscape:groupmode="layer"
     id="layer1"
     transform="translate(-39.542236,-24.003568)">
    <path
       style="fill:#ff0404;stroke:#a60000;stroke-width:0.365001"
       d="m 46.666261,56.433616 c 10.304449,-0.393504 20.621617,-0.453838 30.929963,-0.180877 0.180865,0.0048 0.361962,0.0097 0.542631,0 0.677476,-0.03629 1.336933,-0.280187 1.899564,-0.659315 0.56263,-0.379127 1.030456,-0.890167 1.395333,-1.462143 0.729754,-1.14395 1.042834,-2.503146 1.227025,-3.847481 0.484497,-3.536142 0.160531,-7.125791 -0.07779,-10.687004 -0.238325,-3.561213 -0.385397,-7.183945 0.439549,-10.656481 0.08498,-0.357703 0.180721,-0.717602 0.180877,-1.08526 2.24e-4,-0.528517 -0.202533,-1.047684 -0.52711,-1.464794 -0.324577,-0.417109 -0.765889,-0.735408 -1.247069,-0.954031 -0.96236,-0.437246 -2.052471,-0.479105 -3.109498,-0.475207 -5.449731,0.0201 -10.838442,1.061154 -16.263941,1.574898 -5.425499,0.513743 -11.061368,0.469753 -16.113039,-1.574898 -0.523315,-0.21181 -1.039924,-0.444921 -1.582585,-0.600614 -0.542662,-0.155692 -1.119284,-0.231975 -1.6732,-0.122894 -0.515633,0.101542 -0.994002,0.362433 -1.383157,0.715628 -0.389154,0.353196 -0.691273,0.796306 -0.911056,1.273677 -0.439567,0.954743 -0.549906,2.025363 -0.599818,3.075249 -0.184089,3.872306 0.371164,7.735665 0.716888,11.596898 0.345723,3.861233 0.474959,7.812819 -0.536011,11.555356 -0.06485,0.240056 -0.134383,0.479233 -0.180877,0.723508 -0.161194,0.846904 -0.03352,1.746098 0.357046,2.51466 0.390567,0.768562 1.041633,1.401779 1.820752,1.770835 0.77912,0.369056 1.681515,0.47169 2.523612,0.287021 0.842097,-0.184668 1.618732,-0.655506 2.171915,-1.316731 z"
       id="path2"
       inkscape:path-effect="#path-effect2"
       inkscape:original-d="m 46.666261,56.433616 c 2.532276,1.326433 20.559683,-0.06029 30.929963,-0.180877 10.37028,-0.120584 0.482338,0 0.542631,0 0.06029,0 3.014615,-4.099877 4.521922,-5.968939 1.50731,-1.869062 0.301464,-14.108403 0.361755,-21.343485 0.06029,-7.235078 0.120586,-0.844092 0.180877,-1.08526 0.06029,-0.24117 -3.255786,-1.80877 -4.883677,-2.894032 -1.627894,-1.085262 -21.705239,-0.06029 -32.37698,0 -10.671741,0.06029 -2.049939,-0.542631 -3.255785,-0.723508 -1.205847,-0.180877 -1.989648,3.496954 -2.894031,5.064554 -0.904386,1.567601 0.06029,15.434837 0.180877,23.152254 0.120584,7.717419 0,0.48234 -0.180877,0.723508 -0.180877,0.24117 4.702799,2.291109 6.873325,3.255785 z" />
  </g>
</svg>
